0
SECTION
2
HEADER
9
$INSUNITS
70
4
9
$ACADVER
1
AC1014
9
$HANDSEED
5
FFFF
0
ENDSEC
0
SECTION
2
TABLES
0
TABLE
2
VPORT
5
8
100
AcDbSymbolTable
0
ENDTAB
0
TABLE
2
LTYPE
5
5
100
AcDbSymbolTable
0
LTYPE
5
14
100
AcDbSymbolTableRecord
100
AcDbLinetypeTableRecord
2
BYBLOCK
70
0
0
LTYPE
5
15
100
AcDbSymbolTableRecord
100
AcDbLinetypeTableRecord
2
BYLAYER
70
0
0
LTYPE
5
16
100
AcDbSymbolTableRecord
100
AcDbLinetypeTableRecord
2
DASHED
70
0
3
Dashed __ __ __ __ __ __ __ __ __ __ __ __ __ _
72
65
73
2
40
0.75
49
0.5
74
0
49
-0.25
74
0
0
ENDTAB
0
TABLE
2
LAYER
5
2
100
AcDbSymbolTable
70
2
0
LAYER
5
50
100
AcDbSymbolTableRecord
100
AcDbLayerTableRecord
2
0
70
0
62
7
6
CONTINUOUS
0
ENDTAB
0
TABLE
2
STYLE
5
3
100
AcDbSymbolTable
70
1
0
STYLE
5
11
100
AcDbSymbolTableRecord
100
AcDbTextStyleTableRecord
2
STANDARD
70
0
0
ENDTAB
0
TABLE
2
VIEW
5
6
100
AcDbSymbolTable
70
0
0
ENDTAB
0
TABLE
2
UCS
5
7
100
AcDbSymbolTable
70
0
0
ENDTAB
0
TABLE
2
APPID
5
9
100
AcDbSymbolTable
70
2
0
APPID
5
12
100
AcDbSymbolTableRecord
100
AcDbRegAppTableRecord
2
ACAD
70
0
0
ENDTAB
0
TABLE
2
DIMSTYLE
5
A
100
AcDbSymbolTable
70
1
0
ENDTAB
0
TABLE
2
BLOCK_RECORD
5
1
100
AcDbSymbolTable
70
1
0
BLOCK_RECORD
5
1F
100
AcDbSymbolTableRecord
100
AcDbBlockTableRecord
2
*MODEL_SPACE
0
BLOCK_RECORD
5
1B
100
AcDbSymbolTableRecord
100
AcDbBlockTableRecord
2
*PAPER_SPACE
0
ENDTAB
0
ENDSEC
0
SECTION
2
BLOCKS
0
BLOCK
5
20
100
AcDbEntity
100
AcDbBlockBegin
2
*MODEL_SPACE
0
ENDBLK
5
21
100
AcDbEntity
100
AcDbBlockEnd
0
BLOCK
5
1C
100
AcDbEntity
100
AcDbBlockBegin
2
*PAPER_SPACE
0
ENDBLK
5
1D
100
AcDbEntity
100
AcDbBlockEnd
0
ENDSEC
0
SECTION
2
ENTITIES
0
LWPOLYLINE
5
100
100
AcDbEntity
8
0
100
AcDbPolyline
90
4
70
1
43
0.0
10
-582.5
20
80
10
-572.10683352095873
20
290.02846285995031
10
-523.10684178763699
20
290
10
-512.5
20
80
0
LWPOLYLINE
5
101
100
AcDbEntity
8
0
100
AcDbPolyline
90
28
70
1
43
0.0
10
-503.78359017219793
20
74.909568000502347
10
-506.30555828269064
20
124.84085893582963
10
-501.32072173898052
20
125.09337986148705
10
-503.85036874281616
20
175.02934772069636
10
-508.82778161354236
20
174.77720286208893
10
-511.35000491652238
20
224.71354623652815
10
-506.37259204579613
20
224.96569109513558
10
-508.90223904963182
20
274.9016589543449
10
-513.87222824737398
20
274.64989016278747
10
-515.15263112519563
20
300
10
-585.15261931565522
20
300.04066122850054
10
-586.39671472458713
20
274.89957964224749
10
-581.44416416444733
20
274.64869425396131
10
-583.97381116828296
20
224.71272639475202
10
-588.86792071777063
20
224.96065128915302
10
-591.3391266836461
20
175.02172348790714
10
-586.49603447126287
20
174.77638302031278
10
-589.02568147509851
20
124.84041516110349
10
-593.8103326768296
20
125.08279513481267
10
-596.28153866318291
20
75.143866919745534
10
-591.55161575755812
20
74.904259361916218
10
-594.08126276139387
20
24.968291502706911
10
-598.75274465636642
20
25.204938566651034
10
-600
20
0
10
-500
20
0
10
-501.26136684134622
20
24.973224074243031
10
-496.3651404526853
20
25.221256203090476
10
-498.89478745652093
20
75.157224062299804
0
LWPOLYLINE
5
102
100
AcDbEntity
8
0
100
AcDbPolyline
90
28
70
1
43
0.0
10
-353.78359017219793
20
74.909568000502347
10
-356.30555828269064
20
124.84085893582963
10
-351.32072173898052
20
125.09337986148705
10
-353.85036874281616
20
175.02934772069636
10
-358.82778161354236
20
174.77720286208893
10
-361.35000491652238
20
224.71354623652815
10
-356.37259204579613
20
224.96569109513558
10
-358.90223904963182
20
274.9016589543449
10
-363.87222824737398
20
274.64989016278747
10
-365.15263112519563
20
300
10
-435.15261931565527
20
300.04066122850054
10
-436.39671472458713
20
274.89957964224749
10
-431.44416416444727
20
274.64869425396131
10
-433.97381116828291
20
224.71272639475202
10
-438.86792071777063
20
224.96065128915302
10
-441.33912668364616
20
175.02172348790714
10
-436.49603447126287
20
174.77638302031278
10
-439.02568147509851
20
124.84041516110349
10
-443.81033267682966
20
125.08279513481267
10
-446.28153866318291
20
75.143866919745534
10
-441.55161575755812
20
74.904259361916218
10
-444.08126276139387
20
24.968291502706911
10
-448.75274465636642
20
25.204938566651034
10
-450
20
0
10
-350
20
0
10
-351.26136684134622
20
24.973224074243031
10
-346.3651404526853
20
25.221256203090476
10
-348.89478745652093
20
75.157224062299804
0
LWPOLYLINE
5
103
100
AcDbEntity
8
0
100
AcDbPolyline
90
8
70
1
43
0.0
10
195
20
70
10
195
20
55
10
175
20
55
10
175
20
70
10
150
20
70
10
150
20
0
10
220
20
0
10
220
20
70
0
LWPOLYLINE
5
104
100
AcDbEntity
8
0
100
AcDbPolyline
90
4
70
1
43
0.0
10
250
20
0
10
330
20
0
10
330
20
80
10
250
20
80
0
ENDSEC
0
SECTION
2
OBJECTS
0
DICTIONARY
5
C
100
AcDbDictionary
3
ACAD_GROUP
350
D
3
ACAD_MLINESTYLE
350
17
0
DICTIONARY
5
D
100
AcDbDictionary
0
DICTIONARY
5
1A
330
C
100
AcDbDictionary
0
DICTIONARY
5
17
100
AcDbDictionary
0
ENDSEC
0
EOF
